<svg width="96" height="72" viewBox="0 0 96 72" fill="none" xmlns="http://www.w3.org/2000/svg">
<g clip-path="url(#clip0_5106_1586)">
<path d="M56.5722 70.7604C58.2155 72.4132 60.8925 72.4132 62.5359 70.7604L94.1576 38.9559C95.7842 37.32 95.7842 34.6801 94.1576 33.0441L62.5359 1.23961C60.8926 -0.413211 58.2155 -0.413204 56.5722 1.23963L47.4739 10.3906C55.9356 15.7887 61.5448 25.2415 61.5448 36.0004C61.5448 46.7591 55.9359 56.2117 47.4743 61.6099L56.5722 70.7604Z" fill="#5EC5FD"/>
<path fill-rule="evenodd" clip-rule="evenodd" d="M47.4738 10.3545L24.9528 33.0058C23.3258 34.6423 23.3258 37.2855 24.9528 38.922L47.4742 61.5737C42.7392 64.5946 37.1109 66.3458 31.0724 66.3458C14.243 66.3458 0.599974 52.7435 0.599976 35.9643C0.599977 19.185 14.243 5.58276 31.0724 5.58276C37.1108 5.58276 42.7389 7.33386 47.4738 10.3545Z" fill="#F24D0D"/>
</g>
<defs>
<clipPath id="clip0_5106_1586">
<rect width="96" height="72" fill="white"/>
</clipPath>
</defs>
</svg>
